<svg version="1.1" id="Layer_1" xmlns="http://www.w3.org/2000/svg" xmlns:xlink="http://www.w3.org/1999/xlink" x="0px" y="0px"
	 viewBox="0 0 265.64 265.64" style="enable-background:new 0 0 265.64 265.64;" xml:space="preserve">
<g>
	<g>
		<path style="fill:#4EFFBB;" d="M188.8,167.831c24.728-15.468,39.867-42.892,39.724-72.529
			c-0.228-46.696-37.944-84.48-84.058-84.255c-46.151,0.225-83.46,38.374-83.232,85.07c0.141,28.802,14.892,55.644,38.751,71.056
			l0.141,28.729c0,0.219,0.039,0.399,0.076,0.582c-3.076,3.107-4.982,7.408-4.959,12.134l0.003,0.582
			c0.017,3.638,1.161,6.978,3.104,9.733c-1.915,2.772-3.025,6.126-3.008,9.761l0.003,0.582c0.045,9.418,7.647,17.02,16.921,16.975
			l9.601-0.048l0.003,0.618c0.051,10.402,8.456,18.87,18.785,18.819l9.564-0.048c10.292-0.051,18.614-8.6,18.563-19.002
			l-0.003-0.618l7.675-0.037c9.311-0.045,16.8-7.72,16.755-17.138l-0.003-0.582c-0.017-3.638-1.161-6.978-3.104-9.733
			c1.915-2.775,3.025-6.126,3.008-9.761l-0.003-0.582c-0.02-4.327-1.678-8.212-4.31-11.217c0.07-0.472,0.141-0.947,0.138-1.456
			L188.8,167.831z"/>
		<g id="XMLID_18_">
			<g>
				<path style="fill:#302C58;" d="M151.258,200.198L87.07,200.51c-1.347,0.006-2.406-1.08-2.412-2.423l-0.003-0.582
					c-0.006-1.347,1.043-2.44,2.39-2.449l64.188-0.315c1.347-0.006,2.443,1.08,2.449,2.426l0.003,0.582
					C153.689,199.096,152.604,200.192,151.258,200.198z"/>
				<path style="fill:#302C58;" d="M151.356,220.273l-64.188,0.312c-1.347,0.006-2.406-1.08-2.412-2.426l-0.003-0.582
					c-0.006-1.347,1.043-2.443,2.39-2.449l64.188-0.315c1.347-0.006,2.443,1.08,2.449,2.426l0.003,0.582
					C153.788,219.169,152.703,220.265,151.356,220.273z"/>
				<path style="fill:#222051;" d="M203.497,84.256c-0.228-46.696-37.944-84.48-84.058-84.255
					c-17.717,0.087-34.121,5.774-47.604,15.378c-3.551,2.53-3.877,7.711-0.821,10.818c0.034,0.034,0.067,0.07,0.101,0.104
					c2.477,2.519,6.399,2.828,9.289,0.793c11.108-7.821,24.579-12.44,39.108-12.513c38.15-0.186,69.361,31.118,69.549,69.743
					c0.126,25.785-13.652,49.454-35.993,61.855c-2.322,1.285-3.764,3.764-3.75,6.455l0.121,24.585l-20.584,0.101l-0.225-46.077
					l26.381-26.969c2.064-2.12,2.665-5.249,1.524-7.973c-1.105-2.721-3.767-4.492-6.677-4.476l-57.025,0.278
					c-2.91,0.014-5.555,1.808-6.632,4.543c-1.113,2.733-0.481,5.859,1.602,7.956l14.082,14.124c2.539,2.547,6.64,3.168,9.55,1.051
					c3.711-2.702,4.003-7.995,0.9-11.15l-2.01-1.99l22.184-0.11l-16.213,16.59c-1.375,1.389-2.094,3.247-2.083,5.173l0.239,49.097
					l-24.948,0.121l-0.127-25.566c-0.011-2.547-1.31-4.962-3.52-6.227c-17.489-9.997-29.659-27.169-33.733-46.651
					c-0.697-3.34-3.615-5.741-7.028-5.741l0,0c-4.633,0-7.981,4.293-7.028,8.83c4.627,22.063,17.841,41.661,36.893,53.969
					l0.141,28.729c0,0.219,0.039,0.399,0.076,0.582c-3.076,3.107-4.982,7.408-4.959,12.136l0.003,0.582
					c0.017,3.638,1.161,6.978,3.104,9.733c-1.915,2.775-3.025,6.126-3.008,9.761l0.003,0.582c0.045,9.421,7.647,17.02,16.921,16.975
					l9.601-0.048l0.003,0.618c0.051,10.402,8.456,18.87,18.785,18.819l9.564-0.048c10.292-0.051,18.614-8.6,18.563-19.002
					l-0.003-0.618l7.675-0.037c9.311-0.045,16.8-7.72,16.755-17.138l-0.003-0.582c-0.017-3.638-1.161-6.978-3.104-9.733
					c1.915-2.775,3.025-6.126,3.008-9.761l-0.003-0.582c-0.02-4.327-1.676-8.212-4.31-11.217c0.07-0.472,0.141-0.947,0.138-1.456
					l-0.135-27.638C188.502,141.318,203.644,113.896,203.497,84.256z M84.655,197.505c-0.006-1.347,1.043-2.44,2.39-2.449
					l64.188-0.312c1.347-0.006,2.443,1.08,2.449,2.423l0.003,0.582c0.006,1.347-1.08,2.443-2.423,2.449l-64.188,0.312
					c-1.347,0.006-2.406-1.08-2.412-2.426L84.655,197.505z M125.121,239.93l-9.564,0.048c-2.364,0.011-4.265-1.906-4.276-4.27
					l-0.003-0.618l18.074-0.087l0.003,0.618C129.366,237.982,127.448,239.919,125.121,239.93z M151.356,220.273l-64.188,0.312
					c-1.347,0.008-2.406-1.08-2.412-2.423l-0.003-0.582c-0.006-1.347,1.043-2.443,2.39-2.449l64.188-0.315
					c1.347-0.006,2.443,1.08,2.449,2.426l0.003,0.582C153.788,219.169,152.703,220.265,151.356,220.273z"/>
				<path style="fill:#222051;" d="M44.318,80.337h0.048c3.57,0,6.548-2.64,7.07-6.171c1.6-10.765,5.617-20.745,11.495-29.336
					c1.945-2.845,1.653-6.64-0.765-9.097c-0.034-0.034-0.067-0.07-0.101-0.104c-3.118-3.171-8.423-2.828-10.936,0.843
					c-7.16,10.455-12.032,22.617-13.941,35.746C36.567,76.505,39.986,80.337,44.318,80.337z"/>
			</g>
		</g>
	</g>
</g>
<g>
</g>
<g>
</g>
<g>
</g>
<g>
</g>
<g>
</g>
<g>
</g>
<g>
</g>
<g>
</g>
<g>
</g>
<g>
</g>
<g>
</g>
<g>
</g>
<g>
</g>
<g>
</g>
<g>
</g>
</svg>