<svg width="24" height="24" viewBox="0 0 24 24" fill="none" xmlns="http://www.w3.org/2000/svg">
<path d="M21.4195 12.942L18.8672 4.25137V4.24902C18.689 3.7123 18.2648 3.39355 17.7351 3.39355C17.1867 3.39355 16.739 3.70996 16.5703 4.21856L14.8969 9.21075H9.11249L7.43905 4.21856C7.2703 3.70996 6.82265 3.39355 6.27421 3.39355C5.7328 3.39355 5.27811 3.74043 5.13983 4.25137L2.58983 12.942C2.48671 13.2865 2.61796 13.6779 2.90624 13.8959L11.543 20.374C11.6039 20.4584 11.6883 20.5217 11.7867 20.5569L11.9883 20.7069L12.1875 20.5569C12.3023 20.517 12.3984 20.4467 12.4664 20.3483L21.1008 13.8936C21.3914 13.6779 21.5226 13.2865 21.4195 12.942ZM17.618 4.53262C17.6414 4.49043 17.6859 4.48809 17.7 4.48809C17.7258 4.48809 17.7586 4.49512 17.7797 4.5584L19.1719 9.24122H16.043L17.618 4.53262ZM6.19452 4.55606C6.21561 4.49512 6.24843 4.48809 6.27421 4.48809C6.33749 4.48809 6.34218 4.49043 6.3539 4.52793L7.93124 9.24356H4.83983L6.19452 4.55606V4.55606ZM3.72187 13.0943L4.3828 10.8139L9.12655 17.1467L3.72187 13.0943V13.0943ZM5.4539 10.3662H8.31561L10.4437 17.0295L5.4539 10.3662V10.3662ZM12.0211 18.1873L9.50858 10.3662H14.5312L12.0211 18.1873ZM15.7219 10.3662H18.5226L13.5937 16.9475L15.7219 10.3662ZM14.768 17.2545L19.6265 10.7693L20.318 13.0943L14.768 17.2545Z" fill="#fca5a5"/>
</svg>
