<svg width="24" height="24" viewBox="0 0 24 24" fill="none" xmlns="http://www.w3.org/2000/svg">
<path fill-rule="evenodd" clip-rule="evenodd" d="M10.3859 8.35688C10.1542 8.21786 9.86561 8.21422 9.63048 8.34735C9.39534 8.48048 9.25 8.7298 9.25 9V15C9.25 15.2702 9.39534 15.5196 9.63048 15.6527C9.86561 15.7858 10.1542 15.7822 10.3859 15.6432L15.3859 12.6432C15.6118 12.5076 15.75 12.2635 15.75 12C15.75 11.7366 15.6118 11.4925 15.3859 11.3569L10.3859 8.35688ZM13.5423 12L10.75 13.6754V10.3247L13.5423 12Z" fill="#fca5a5"/>
<path fill-rule="evenodd" clip-rule="evenodd" d="M17.0306 4.64131C13.6819 4.37933 10.3179 4.37933 6.96926 4.64131L4.72856 4.81661C3.366 4.92321 2.25131 5.94442 2.02607 7.29246C1.50531 10.4092 1.50531 13.5908 2.02607 16.7076C2.25131 18.0556 3.366 19.0768 4.72856 19.1834L6.96926 19.3587C10.3179 19.6207 13.6819 19.6207 17.0306 19.3587L19.2713 19.1834C20.6338 19.0768 21.7485 18.0556 21.9738 16.7076C22.4945 13.5908 22.4945 10.4092 21.9738 7.29246C21.7485 5.94442 20.6338 4.92321 19.2713 4.81661L17.0306 4.64131ZM7.08626 6.13674C10.3571 5.88085 13.6428 5.88085 16.9136 6.13674L19.1543 6.31204C19.8299 6.3649 20.3826 6.87125 20.4943 7.53966C20.9877 10.4928 20.9877 13.5073 20.4943 16.4604C20.3826 17.1288 19.8299 17.6352 19.1543 17.688L16.9136 17.8633C13.6428 18.1192 10.357 18.1192 7.08626 17.8633L4.84556 17.688C4.16995 17.6352 3.61724 17.1288 3.50556 16.4604C3.01215 13.5073 3.01215 10.4928 3.50556 7.53966C3.61724 6.87125 4.16995 6.3649 4.84556 6.31204L7.08626 6.13674Z" fill="#fca5a5"/>
</svg>
