<svg width="24" height="24" viewBox="0 0 24 24" fill="none" xmlns="http://www.w3.org/2000/svg">
<path fill-rule="evenodd" clip-rule="evenodd" d="M5 0.75C3.48122 0.75 2.25 1.98122 2.25 3.5C2.25 5.01878 3.48122 6.25 5 6.25C6.51878 6.25 7.75 5.01878 7.75 3.5C7.75 1.98122 6.51878 0.75 5 0.75ZM3.75 3.5C3.75 2.80964 4.30964 2.25 5 2.25C5.69036 2.25 6.25 2.80964 6.25 3.5C6.25 4.19036 5.69036 4.75 5 4.75C4.30964 4.75 3.75 4.19036 3.75 3.5Z" fill="#f3f4f6"/>
<path fill-rule="evenodd" clip-rule="evenodd" d="M2.25 8C2.25 7.58579 2.58579 7.25 3 7.25H7C7.41421 7.25 7.75 7.58579 7.75 8V21C7.75 21.4142 7.41421 21.75 7 21.75H3C2.58579 21.75 2.25 21.4142 2.25 21V8ZM3.75 8.75V20.25H6.25V8.75H3.75Z" fill="#f3f4f6"/>
<path fill-rule="evenodd" clip-rule="evenodd" d="M9.75 8C9.75 7.58579 10.0858 7.25 10.5 7.25H14.5C14.9142 7.25 15.25 7.58579 15.25 8V8.43402L15.6853 8.24748C16.4336 7.92676 17.2339 7.72565 18.0433 7.65207C20.8182 7.3998 23.25 9.58038 23.25 12.3802V21C23.25 21.4142 22.9142 21.75 22.5 21.75H18.5C18.0858 21.75 17.75 21.4142 17.75 21V14C17.75 13.6685 17.6183 13.3505 17.3839 13.1161C17.1495 12.8817 16.8315 12.75 16.5 12.75C16.1685 12.75 15.8505 12.8817 15.6161 13.1161C15.3817 13.3505 15.25 13.6685 15.25 14V21C15.25 21.4142 14.9142 21.75 14.5 21.75H10.5C10.0858 21.75 9.75 21.4142 9.75 21V8ZM11.25 8.75V20.25H13.75V14C13.75 13.2707 14.0397 12.5712 14.5555 12.0555C15.0712 11.5397 15.7707 11.25 16.5 11.25C17.2293 11.25 17.9288 11.5397 18.4445 12.0555C18.9603 12.5712 19.25 13.2707 19.25 14V20.25H21.75V12.3802C21.75 10.4759 20.089 8.97227 18.1791 9.14591C17.525 9.20536 16.8784 9.36807 16.2762 9.6262L14.7954 10.2608C14.5637 10.3601 14.2976 10.3363 14.0871 10.1976C13.8767 10.0588 13.75 9.82354 13.75 9.57143V8.75H11.25Z" fill="#f3f4f6"/>
</svg>
